<svg xmlns="http://www.w3.org/2000/svg" viewBox="0 0 531.41 612.8"><defs><style>.cls-1{fill:#c19340}.cls-2{fill:#e5ae81}.cls-3{fill:#7e474a}.cls-4{fill:#da896f}.cls-5{fill:#965c52}.cls-6{fill:#283543}.cls-16,.cls-17,.cls-7{fill:#f2f3cd}.cls-8{fill:#a38037}.cls-9{fill:#7e612e}.cls-10{fill:#242c34}.cls-11{fill:#c48056}.cls-12{fill:#5a4029}.cls-13{fill:#4a3622}.cls-14{fill:#965429}.cls-15{fill:#eab64b}.cls-16,.cls-17{font-size:59.54px;font-family:BodoniBT-Book,Bodoni Bk BT}.cls-17{font-size:40.49px}</style></defs><title>112183-OOJK4O-942</title><g id="OBJECTS"><path class="cls-1" d="M408.64 688.87s126.53-26.79 260.49 6c0-.05-136.94 23.77-260.49-6zm-270.91-10.42s104.11-26.79 214.35 6c0-.05-112.69 23.77-214.35-6z" transform="translate(-137.73 -91.04)"/><path class="cls-2" d="M548.81 414.56S537.4 417 536.9 422.5c0 5.46 9.92 20.34 16.37 23.32 3.47 1.49 8.44-10.42 7.94-11.91s-5.46 3.47-5.46 3.47l.5-6.95-4 2s3.01-14.43-3.44-17.87zm-67.65-208.41s11.91 4 13.89-3.31 7.28-17.86 5.29-19.19-8.6 10.59-8.6 10.59l.66-9.92s4-13.23 0-19.19-2.65 9.26-5.29 15.22-7.28 14.56-9.92 16.54 3.97 9.26 3.97 9.26z" transform="translate(-137.73 -91.04)"/><path class="cls-3" d="M505.81 180.11s-13.35 7.13-13.92 16.64 6.71 34.91 6.71 34.91 21.53-38.06 7.21-51.55z" transform="translate(-137.73 -91.04)"/><path class="cls-2" d="M568.25 257.87c-15.87 27.09-45.27 30-58.56 23.94s-25.36-25.17-19.28-38.46 6.87-24 7.8-41.82 18.2-26.66 18.2-26.66 31.78-15.71 58.31 9.67-6.47 73.33-6.47 73.33z" transform="translate(-137.73 -91.04)"/><path class="cls-4" d="M569 247.2s17.41-16 18.29-1.4-33.18 29.87-18.29 1.4z" transform="translate(-137.73 -91.04)"/><path class="cls-4" d="M564.42 207.47s1.09 24.25-.93 35.09-10.23 33.36-42.49 38.57C509.41 279 495.85 270 495.85 270a30.6 30.6 0 0 0 22.76 15.47c16.41 2.26 37.94-5.75 49.44-24.44 8.74-16.8 16.22-48.27 16.22-48.27z" transform="translate(-137.73 -91.04)"/><path class="cls-3" d="M543.28 191.91s-23.65 17.23-33.75 6.93-29-37.87-9.05-54.59 75.65 6.9 90.5 43.33c-3.41 5.38-8.27 5.67-8.27 5.67s9.37 7.76 9 16.11c-1.3 7-13.25 32.39-13.25 32.39s-7.84 3.35-14.65 14.1l-4.21-3.19 14.4-32.18z" transform="translate(-137.73 -91.04)"/><path class="cls-5" d="M520.32 143.14s-20.43-2.21-22.4 12.65c1.9 15.58 71.9 27 72.62 23.16s-30.27-22.48-27-22.67 28.76 13.38 36.32 24.41c-1.33-5.85-16.8-30.38-59.54-37.55zm57.13 55.74s10.31-.48 8.94 10.08c-1.84 9.88-6.6 9.59-9.76 7.2s-22.16-19.76-14.14-17.66a33.49 33.49 0 0 0 14.96.38z" transform="translate(-137.73 -91.04)"/><path class="cls-3" d="M527.21 220.53s15.58 1.73 22.11 5.81c.08-3.44-9.72-9.55-13.26-10.26s-8.85 4.45-8.85 4.45zm-14.36-4.04S501.24 216 496 218.2c.34-2.53 8.22-5.88 10.89-6s5.96 4.29 5.96 4.29z" transform="translate(-137.73 -91.04)"/><ellipse class="cls-3" cx="532.7" cy="231.15" rx="3.93" ry="2.4" transform="rotate(-79.43 409.076 268.523)"/><ellipse class="cls-3" cx="504.8" cy="225.95" rx="3.93" ry="2.4" transform="rotate(-79.44 381.113 263.318)"/><path class="cls-4" d="M510.62 239.23l-18.7-7.92s.22 17.26 13.77 15.86c4.47-.17 4.93-7.94 4.93-7.94z" transform="translate(-137.73 -91.04)"/><path class="cls-6" d="M470.74 443.67s28.12 207.41 28.12 233.22c-1 0 5 1 5 1s-4 6-14.89 9.92c-7.94 4 23.82 1 27.79-2-1-3-6.95-9.92-6.95-9.92 2-2-1.4-188.47-1.4-188.47s44.07 136.87 51 195.42h-1l6.95 4-12.9 9.92s21.34 0 22.33-5c-1-5-2-8.93-2-8.93s-29.61-218.33-31.92-237.19c-12.24-9.91-70.13-1.97-70.13-1.97z" transform="translate(-137.73 -91.04)"/><path class="cls-7" d="M533.59 291.83s28.28 15.88 31.26 18.36 7.77 7.11 7.77 7.11l-16.54 19.85S527 404 540.87 445.65c0 0-32.42 14.56-70.13-2-1.52-10-9.26-13.89 0-119.75 1.32-8.6-2.65-23.82-2.65-23.82l49.62-6z" transform="translate(-137.73 -91.04)"/><path class="cls-4" d="M515.73 281.41s2 9.92-3.47 17.37c1 .5 7.44 4.47 7.44 4.47l14.39-6.95-2.48-14.89z" transform="translate(-137.73 -91.04)"/><path class="cls-8" d="M507.79 296.79s-4.63 9.92-4.63 14.56c1.32 0 13.23-5.29 13.23-5.29l11.25 12.57s9.92-9.92 9.26-20.51c2 5.29-2.65 21.83-7.94 25.14-5.29-1.32-12.57-13.23-12.57-13.23l-18.52 7.28s2.64-12.58 9.92-20.52z" transform="translate(-137.73 -91.04)"/><path class="cls-8" d="M372.05 220.14l1.48 10.42 9.93-4.96-4.8-10.58-6.61 5.12z"/><path class="cls-8" d="M516.45 316.65s-16.75 72.91-17.93 107L486 436.11l-8.69-17.85s24.35-80.88 34.3-104.56c2.89 2.58 4.84 2.95 4.84 2.95z" transform="translate(-137.73 -91.04)"/><path class="cls-9" d="M499.18 413.68c2-21.18 7.43-50.36 11.7-71.17l-8.47-3.5c-7.52 22.21-16.35 50.66-21.28 66.73 5.96 2.58 12.48 5.44 18.05 7.94z" transform="translate(-137.73 -91.04)"/><path class="cls-10" d="M469.08 439s37.71 13.23 70.79 1c1.16 5.87 1.65 10.92 1.65 10.92s-37.38 10.92-70.13-2c-.65.08-2.31-9.92-2.31-9.92z" transform="translate(-137.73 -91.04)"/><path class="cls-6" d="M478.51 453.1L476 440.69l6.45 2 1.55 13.88s-4.5-2.98-5.49-3.47zm46.89 1.48l3-11.41-6.95 1-1.49 13.89s4.45-2.98 5.44-3.48z" transform="translate(-137.73 -91.04)"/><path class="cls-7" d="M477.52 298.78s-32.75-5-44.66-52.6c0 0 37.71-33.74 52.6-35.73 2-5 0-16.87-9.92-15.88 0 0-46.64 13.89-75.42 49.62 0 0 23.82 68.48 75.42 88.32 8.93-6.95 5.62-33.74 5.62-33.74m91.14 17.87s37.22 38.7 45.15 68.48c0 0-30.76 34.73-64.51 41.68 0 0-6.95-7.94-2-15.88 3-4 25.8-14.89 32.75-28.78 2-6-23.82-41.68-36.72-45.65s25.33-19.85 25.33-19.85z" transform="translate(-137.73 -91.04)"/><path class="cls-11" d="M502 257.42s15.88.66 23.49 4.63c0 0 .17 1.49.79 2 .25-.5.62-3.35 1.36-4.59-.5 0-1.49 2-1.49 2a52.89 52.89 0 0 0-23.45-5l-.37-.25s-.74-1.36-1-1.24a25.51 25.51 0 0 1-.62 4.47c.38-.61 1.29-2.02 1.29-2.02z" transform="translate(-137.73 -91.04)"/><path class="cls-12" d="M98.24 84.28h17.86v501.64H98.24z"/><path class="cls-13" d="M98.24 163.68h17.86v21.31H98.24z"/><path class="cls-14" d="M205.06 143.56l-18.99-23.55H29.77v56.56h156.3l22.73-28.38v-4.63h-3.74z"/><path class="cls-15" d="M186.07 171.94H29.77v-56.56h156.3l22.73 28.18-22.73 28.38z"/><path class="cls-13" d="M98.24 363.15h17.86v21.31H98.24z"/><path class="cls-14" d="M205.06 343.04l-18.99-23.56H29.77v56.57h156.3l22.73-28.38v-4.63h-3.74z"/><path class="cls-15" d="M186.07 371.42H29.77v-56.57h156.3l22.73 28.19-22.73 28.38z"/><path class="cls-13" transform="rotate(180 175.945 317.105)" d="M235.88 351.97h17.86v21.31h-17.86z"/><path class="cls-14" d="M9.19 240.82l19-23.56h156.3v56.57H28.19L5.46 245.45v-4.63h3.73z"/><path class="cls-15" d="M28.19 269.2h156.3v-56.57H28.19L5.46 240.82l22.73 28.38z"/><text class="cls-16" transform="translate(462.2 209.91)">?</text><text class="cls-17" transform="rotate(-26.68 356.844 -600.962)">?</text><path class="cls-7" d="M575 203.77s-4.14 28.17-11.35 18.16S575 203.77 575 203.77zm27.79-60.13c-8-10.15-20-16.72-31.79-21.62a299.14 299.14 0 0 0-44-14.18l-.47-.11c3.38-5.33 9.3-8.64 15.28-10.27 7.61-2.07 16-1.59 23.72-.54a86.16 86.16 0 0 1 22.47 6.35c.59.25 1.1-.61.5-.86-13.14-5.67-28.2-8.71-42.5-6.79-8 1.08-16.21 5.16-20.43 11.88a116.76 116.76 0 0 0-20.79-3.5 49.06 49.06 0 0 0-10.2.53c-2.95.45-6.44 1.19-8.85 3.08-6.12 4.79-2.79 12.51 1.11 17.58 4.68 6.1 11 11.25 17.23 15.76A105.26 105.26 0 0 0 549 159.6c.63.1.9-.86.27-1a105.89 105.89 0 0 1-38-14.11A103.93 103.93 0 0 1 494.74 132c-4.92-4.55-11-10.17-11.48-17.3-.63-9.23 13.41-9.83 19.67-9.78 7.46.06 14.86 1.72 22.1 3.46a18.91 18.91 0 0 0-2.39 8.78c-.33 12.46 11.73 21.75 21.39 27.28A90.24 90.24 0 0 0 583.44 156c5.75.34 12.49.73 17.88-1.65a6.78 6.78 0 0 0 3.78-4c.9-2.44-.88-4.9-2.31-6.71zm-5.59 10.92a52 52 0 0 1-11.19.51 89 89 0 0 1-21.85-3.31c-13.38-3.7-28.16-10.73-36.35-22.38-4.11-5.85-5.5-13.1-2.37-19.71.17-.36.35-.71.55-1l.74.18a289.12 289.12 0 0 1 44.64 14.45 105.25 105.25 0 0 1 17.8 9.47 65.77 65.77 0 0 1 8 6.38c2.71 2.52 6.84 6.09 7.12 10 .25 3.44-4.44 4.85-7.08 5.42z" transform="translate(-137.73 -91.04)"/><path class="cls-7" d="M455.46 8.15L458.79 0l1.11 9.63 7.41 1.48-7.04 1.85 3.34 7.78-6.67-6.3-7.41 5.93 4.82-8.89-7.04-3.33h8.15zm-108 23l3.33-8.15 1.11 9.63 7.41 1.48-7.04 1.85 3.34 7.78-6.67-6.3-7.41 5.93 4.82-8.89-7.04-3.33h8.15zM467.2 85.07l1.67-4.07.55 4.81 3.71.75-3.52.92 1.66 3.89-3.33-3.15-3.7 2.97 2.4-4.45-3.51-1.67h4.07z"/></g></svg>